PathFileType	4	(X/Y/Z)	C:\Users\Basilio\Documents\Thesis Gigler\squatting_fais\c3dfiles\038\SLS_front_pre5\markers_experimental.trc
DataRate	CameraRate	NumFrames	NumMarkers	Units	OrigDataRate	OrigDataStartFrame	OrigNumFrames
200.000000	200.000000	4	61	mm	200.000000	1149	1532
Frame#	Time	FHD			LBHD			RBHD			C7			T10			CLAV			LSHO			LUUPA			LMUPA			LDUPA			LLEP			LMEP			LRAD			LUL			LRFIN			RSHO			RUPA1			RMUPA			RDUPA			RLEP			RMEP			RRAD			RUL			RUFIN			LASI			RASI			USACR			LSACR			RSACR			LTHI1			LTHI2			LTHI3			LTHI4			LLFC			LMFC			LTIB1			LTIB2			LTIB3			LTIB4			LLMAL			LMMAL			LHEE			LMT1			LMT2			LMT5			RTHI			RTHI2			RTHI3			RTHI4			RLFC			RMFC			RTIB1			RTIB2			RTIB3			RTIB4			RLMAL			RMMAL			RHEE			RMT1			RMT2			RMT5			
		X1	Y1	Z1	X2	Y2	Z2	X3	Y3	Z3	X4	Y4	Z4	X5	Y5	Z5	X6	Y6	Z6	X7	Y7	Z7	X8	Y8	Z8	X9	Y9	Z9	X10	Y10	Z10	X11	Y11	Z11	X12	Y12	Z12	X13	Y13	Z13	X14	Y14	Z14	X15	Y15	Z15	X16	Y16	Z16	X17	Y17	Z17	X18	Y18	Z18	X19	Y19	Z19	X20	Y20	Z20	X21	Y21	Z21	X22	Y22	Z22	X23	Y23	Z23	X24	Y24	Z24	X25	Y25	Z25	X26	Y26	Z26	X27	Y27	Z27	X28	Y28	Z28	X29	Y29	Z29	X30	Y30	Z30	X31	Y31	Z31	X32	Y32	Z32	X33	Y33	Z33	X34	Y34	Z34	X35	Y35	Z35	X36	Y36	Z36	X37	Y37	Z37	X38	Y38	Z38	X39	Y39	Z39	X40	Y40	Z40	X41	Y41	Z41	X42	Y42	Z42	X43	Y43	Z43	X44	Y44	Z44	X45	Y45	Z45	X46	Y46	Z46	X47	Y47	Z47	X48	Y48	Z48	X49	Y49	Z49	X50	Y50	Z50	X51	Y51	Z51	X52	Y52	Z52	X53	Y53	Z53	X54	Y54	Z54	X55	Y55	Z55	X56	Y56	Z56	X57	Y57	Z57	X58	Y58	Z58	X59	Y59	Z59	X60	Y60	Z60	X61	Y61	Z61	

1150	5.745	-206.3943176269532	1759.494140625	-1119.03076171875	-360.3719787597657	1704.000366210938	-1180.977905273438	-353.7611083984376	1692.74755859375	-1035.95751953125	-408.7010192871095	1530.499877929688	-1106.7451171875	-413.0781555175782	1248.899780273438	-1074.717163085938	-262.0223693847657	1511.269653320313	-1111.091186523438	-317.3221130371094	1541.86962890625	-1255.904418945313	-148.1107788085938	1484.221801757813	-1380.3671875	-122.03515625	1518.16845703125	-1352.385864257813	-79.20859527587892	1492.71533203125	-1385.7275390625	-16.92235374450684	1496.15869140625	-1384.412963867188	-6.668432712554933	1421.229614257813	-1363.261474609375	260.1502685546876	1489.537841796875	-1260.697143554688	275.4356994628907	1511.819458007813	-1327.359741210938	328.3591613769532	1522.674194335938	-1230.501220703125	-311.0244750976563	1550.847045898438	-971.5339355468752	-162.1352996826172	1530.954833984375	-840.3780517578127	-124.3037719726563	1537.493041992188	-870.1437988281252	-97.19799804687503	1528.072387695313	-816.875427246094	-23.90318489074707	1525.443115234375	-800.886657714844	-17.45937728881836	1445.550537109375	-810.6265258789065	254.4488372802735	1515.067260742188	-870.616149902344	263.7204895019532	1535.49853515625	-803.1072998046877	334.8511352539063	1549.998779296875	-876.6902465820315	-239.1945343017579	1048.458984375	-1156.855834960938	-264.9823303222657	1091.449096679688	-909.7595214843752	-419.3605041503907	1111.425537109375	-1052.585327148438	-430.145477294922	1079.401733398438	-1077.004272460938	-433.079315185547	1085.435424804688	-1020.665710449219	-257.2702941894532	727.4395141601564	-1194.342041015625	-220.7943572998047	650.6563720703126	-1184.794921875	-174.8648834228516	661.0985717773439	-1165.296020507813	-244.3762359619141	600.8479614257814	-1162.933471679688	-237.0822296142579	541.6929931640626	-1152.278564453125	-223.0486297607422	539.5248413085939	-1035.105102539063	-222.684799194336	355.5764160156251	-1068.1162109375	-273.8097229003907	316.3973693847657	-1129.070190429688	-237.7946166992188	308.7964172363282	-1100.883666992188	-262.2128295898438	233.7796325683594	-1066.05908203125	-364.9979858398438	115.047233581543	-1073.343139648438	-324.7941894531251	129.0379791259766	-1003.800720214844	-416.4161376953126	94.79473876953126	-1016.167236328125	-215.6748046875001	45.5394630432129	-1017.684265136719	-209.5230255126954	44.23361206054688	-1068.787353515625	-257.3805847167969	32.90741348266602	-1112.6865234375	-224.5109863281251	840.3209228515627	-829.7137451171877	-166.2440643310547	806.9859619140627	-829.0571289062502	-138.0194549560547	822.0141601562502	-837.4332275390627	-158.7590789794922	721.1250000000001	-838.7919921875002	-87.61976623535158	605.4257812500001	-842.0419921875002	-89.29207611083986	597.8112792968751	-961.7596435546877	16.86930847167969	455.1260681152345	-858.2430419921877	-27.92565917968751	354.3329467773438	-818.3093261718752	13.94022178649903	373.1461791992188	-828.071228027344	42.63726806640626	328.8273925781251	-854.9281005859377	26.36137008666993	192.0684967041016	-817.8007812500002	53.80680084228517	208.8755035400391	-897.7197265625002	0.9236999750137331	116.1892242431641	-880.5291748046877	192.0103912353516	214.7791900634766	-862.9002685546877	184.5241088867188	221.4985504150391	-816.9022216796877	154.1959838867188	186.535140991211	-773.164001464844	
1151	5.75	-206.5512237548829	1759.822509765625	-1118.882934570313	-360.3386535644532	1704.425170898438	-1180.92041015625	-353.8441772460938	1693.12060546875	-1035.921875	-408.6928710937501	1530.673706054688	-1106.648193359375	-411.184539794922	1249.654663085938	-1074.088989257813	-262.0055236816407	1511.649047851563	-1111.115600585938	-317.3706054687501	1542.124389648438	-1255.89501953125	-148.0753631591797	1484.593872070313	-1380.35888671875	-121.9485321044922	1518.538208007813	-1352.427368164063	-79.23678588867189	1493.03955078125	-1385.671630859375	-16.82515525817871	1496.485961914063	-1384.389892578125	-6.609001636505129	1421.519897460938	-1363.182495117188	259.9117126464844	1489.942749023438	-1260.76953125	275.4886169433594	1512.2763671875	-1327.337646484375	328.4332275390626	1523.258056640625	-1230.50439453125	-310.9351196289063	1551.2421875	-971.4809570312502	-162.290756225586	1531.447387695313	-840.010925292969	-124.3077621459961	1538.009399414063	-870.215026855469	-97.22418212890628	1528.532348632813	-816.766052246094	-23.88978004455567	1525.773559570313	-800.7390747070315	-17.52029991149903	1446.036254882813	-810.4588012695315	254.4688262939454	1515.766235351563	-870.3750000000002	263.6222839355469	1536.03369140625	-802.8594360351565	334.6500244140626	1550.200073242188	-876.0811157226565	-238.6233825683594	1048.825073242188	-1156.829956054688	-264.5421447753907	1091.746215820313	-909.670593261719	-418.7916564941407	1111.501342773438	-1052.56689453125	-429.7047729492189	1079.673706054688	-1077.015747070313	-432.6231384277345	1085.696411132813	-1020.768310546875	-257.4494018554688	727.7691650390626	-1194.161010742188	-221.0408477783204	650.8670043945314	-1184.544189453125	-175.025390625	661.1882324218751	-1165.046264648438	-244.8751373291016	601.1416015625001	-1162.716552734375	-237.9014282226563	541.6839599609376	-1152.038330078125	-223.8157348632813	539.7456054687501	-1034.749267578125	-223.2887268066407	355.7893981933594	-1067.78173828125	-274.2422485351563	316.5576477050782	-1128.97998046875	-238.1625061035157	308.9030456542969	-1100.649780273438	-262.3647460937501	234.3097229003907	-1065.508178710938	-364.9471130371094	114.819938659668	-1073.382446289063	-324.8313598632813	129.0213165283203	-1003.790832519531	-416.4294433593751	94.71887969970705	-1016.126525878906	-215.6835937500001	45.55838012695313	-1017.680297851563	-209.4830322265626	44.20921707153321	-1068.757202148438	-257.3928222656251	32.86344909667969	-1112.671142578125	-224.5792541503907	840.2906494140627	-829.670349121094	-166.5372772216797	806.7859497070315	-828.896911621094	-138.1581268310547	821.5368652343752	-837.1578369140627	-159.3345947265625	720.7396850585939	-838.6309204101565	-88.65151977539064	604.8825683593751	-841.7983398437502	-90.5525588989258	597.1278076171876	-961.5396118164065	14.82482433319092	453.660125732422	-857.9819946289065	-30.6107578277588	353.5878295898438	-818.0802001953127	11.54171943664551	372.1510009765626	-827.6510009765627	39.82469177246094	327.6325073242188	-854.7485351562502	22.6391830444336	191.0085906982422	-817.3184204101565	49.70591354370119	207.8959655761719	-897.4266357421877	-4.294956207275392	115.8310470581055	-879.6331787109377	188.2950592041016	212.4680480957032	-862.6343994140627	180.959701538086	219.3227233886719	-816.617126464844	150.4998931884766	184.3847045898438	-772.9602661132815	
1152	5.755	-206.6143035888672	1760.233154296875	-1118.865112304688	-360.3317871093751	1704.85546875	-1180.862915039063	-353.9211120605469	1693.49169921875	-1035.929321289063	-408.7038574218751	1530.917114257813	-1106.609985351563	-411.4404602050782	1249.670288085938	-1074.227416992188	-261.8777465820313	1512.139038085938	-1111.119750976563	-317.3828735351563	1542.44970703125	-1255.861450195313	-148.0962677001953	1484.874755859375	-1380.308471679688	-122.0314559936524	1518.873901367188	-1352.40576171875	-79.20730590820314	1493.312133789063	-1385.618774414063	-16.75904846191407	1496.790161132813	-1384.303588867188	-6.65958881378174	1421.873779296875	-1362.98876953125	259.8652648925782	1490.285034179688	-1260.654541015625	275.5082397460938	1512.76513671875	-1327.321533203125	328.4311828613282	1523.856567382813	-1230.486206054688	-310.9269104003907	1551.63720703125	-971.5100708007815	-162.3351135253907	1531.729370117188	-839.9622192382815	-124.360466003418	1538.374267578125	-870.252624511719	-97.19309997558597	1528.94677734375	-816.659606933594	-23.90719795227051	1526.241943359375	-800.6210937500002	-17.50077819824219	1446.483520507813	-810.305847167969	254.4029541015626	1516.28173828125	-870.1220703125002	263.6118774414063	1536.582763671875	-802.6561279296877	334.4847106933594	1550.7421875	-875.7534790039065	-238.0922088623047	1049.134155273438	-1156.7216796875	-264.1440734863282	1092.140014648438	-909.5898437500002	-418.2949829101564	1112.02099609375	-1052.647705078125	-429.1238403320314	1080.0244140625	-1076.954711914063	-432.1948547363282	1086.04736328125	-1020.740051269531	-257.5390625000001	728.1000976562501	-1193.962158203125	-221.3588409423829	651.1064453125001	-1184.333374023438	-175.2686614990235	661.3305664062501	-1164.797485351563	-245.2596740722657	601.4484863281251	-1162.481689453125	-238.4582061767579	541.9179077148439	-1151.757690429688	-224.4585723876954	539.8554077148439	-1034.388671875	-223.7602539062501	355.9946289062501	-1067.612915039063	-274.4835205078126	316.7019042968751	-1128.775634765625	-238.6697082519532	309.0491027832032	-1100.39453125	-262.6253051757813	234.3480072021485	-1065.402465820313	-365.0581665039063	114.994873046875	-1073.2890625	-324.6292724609376	129.2776336669922	-1003.678100585938	-416.4291992187501	94.7807083129883	-1016.169799804688	-215.6929779052735	45.59748840332032	-1017.6640625	-209.4779357910157	44.30310440063477	-1068.811889648438	-257.3939819335938	32.84743118286134	-1112.691284179688	-224.620101928711	840.234558105469	-829.5559082031252	-166.7670288085938	806.5181274414065	-828.649353027344	-138.2170715332032	821.1929931640627	-836.9873657226565	-159.9000244140625	720.5203247070314	-838.5415649414065	-89.72625732421876	604.4009399414064	-841.4322509765627	-91.52518463134767	596.6676635742189	-961.2049560546877	12.99831104278565	452.7662048339845	-857.7478027343752	-33.26744461059571	352.7669982910157	-817.689880371094	8.977529525756838	371.0084533691407	-827.5821533203127	37.14947128295899	326.3376159667969	-854.5642700195315	18.35109519958496	189.5238189697266	-817.1457519531252	45.9122657775879	206.4348754882813	-897.1528930664065	-8.751170158386232	114.9352264404297	-879.1898193359377	184.8442840576172	210.1718902587891	-862.2851562500002	177.3445739746094	216.8775482177735	-816.2664794921877	146.5614624023438	182.1029510498047	-772.631286621094	
1153	5.76	-206.6644744873047	1760.184692382813	-1118.660034179688	-360.3363952636719	1705.191772460938	-1180.8935546875	-354.0565795898438	1693.7861328125	-1035.934814453125	-408.6368408203126	1531.182495117188	-1106.598388671875	-411.1000366210939	1249.84375	-1074.08740234375	-261.7762145996094	1512.558471679688	-1111.064575195313	-317.3099365234376	1542.830810546875	-1255.845703125	-148.0893249511719	1485.30712890625	-1380.23974609375	-122.1224441528321	1519.158569335938	-1352.267822265625	-79.21530914306642	1493.678344726563	-1385.574829101563	-16.70989418029786	1497.074096679688	-1384.217407226563	-6.611143112182619	1422.331420898438	-1362.8349609375	260.0942687988282	1490.596069335938	-1260.572143554688	275.5509338378907	1513.073486328125	-1327.328369140625	328.4967346191407	1524.21435546875	-1230.519653320313	-311.0140686035157	1551.876708984375	-971.3713378906252	-162.3864440917969	1532.098999023438	-839.9036865234377	-124.3975296020508	1538.689819335938	-870.0629882812502	-97.28737640380862	1529.335571289063	-816.5592041015627	-24.08734321594239	1526.6962890625	-800.3323974609377	-17.57966232299805	1446.902709960938	-810.164733886719	254.4178009033204	1516.882080078125	-869.886413574219	263.4941711425782	1537.1953125	-802.4719238281252	334.2493591308594	1550.943237304688	-875.5549926757815	-237.6435546875001	1049.486572265625	-1156.621337890625	-263.8115234375001	1092.438720703125	-909.5250244140627	-417.7440490722657	1112.023315429688	-1052.624877929688	-428.6676330566407	1080.331298828125	-1076.991577148438	-431.5115051269532	1086.287475585938	-1020.695068359375	-257.6364440917969	728.4002075195314	-1193.86083984375	-221.6778564453126	651.3179931640626	-1184.030517578125	-175.4897003173828	661.4644775390626	-1164.606689453125	-245.6682281494141	601.8142089843751	-1162.1328125	-238.9004669189454	542.1825561523439	-1151.544555664063	-224.8629302978516	539.9580688476564	-1034.143188476563	-224.0565032958985	356.1903991699219	-1067.4306640625	-274.5374450683594	317.1987304687501	-1128.550415039063	-238.9435577392579	309.2959289550782	-1100.1767578125	-262.9003601074219	234.4945068359376	-1065.305786132813	-365.1022949218751	114.9984512329102	-1073.317504882813	-324.9253845214844	129.0204620361328	-1003.812438964844	-416.4319152832032	94.71887969970705	-1016.121948242188	-215.6981811523438	45.59552764892579	-1017.674499511719	-209.5017395019532	44.28588485717774	-1068.778686523438	-257.3995361328126	32.86135482788087	-1112.671264648438	-224.769271850586	840.170837402344	-829.5339965820315	-166.9805450439453	806.2958984375002	-828.470886230469	-138.2935943603516	821.0045166015627	-836.8148193359377	-160.4355163574219	720.2609252929689	-838.293884277344	-90.64188385009767	603.9338378906251	-841.1677246093752	-92.19927215576173	596.4020385742189	-960.8322753906252	10.86490631103516	451.5930175781251	-857.239440917969	-36.10697937011719	351.8257446289063	-817.4304809570315	6.409511566162111	369.8844909667969	-827.1426391601565	34.0873031616211	324.8729553222657	-854.1035156250002	14.62351226806641	188.7782745361328	-816.8889770507815	42.81183242797852	204.7091979980469	-896.7088623046877	-13.07097911834717	113.8803405761719	-879.1406860351565	180.9660186767578	207.8039550781251	-862.0252075195315	173.6542205810547	214.5020904541016	-816.1028442382815	142.6213684082032	180.065185546875	-772.384948730469	
